<?xml version="1.0" encoding="utf-8"?>
<!-- Generator: Adobe Illustrator 24.3.0, SVG Export Plug-In . SVG Version: 6.00 Build 0)  -->
<svg version="1.1" id="Calque_1" xmlns="http://www.w3.org/2000/svg" xmlns:xlink="http://www.w3.org/1999/xlink" x="0px" y="0px"
	 viewBox="0 0 62.4 62.4" style="enable-background:new 0 0 62.4 62.4;" xml:space="preserve">
<style type="text/css">
	.st0{fill:#EB984A;}
	.st1{fill:#BB3634;}
</style>
<g id="Calque_2_1_">
	<g id="Calque_1-2">
		<path class="st0" d="M25.6,50C8.9,50,0.2,40.7,0.1,40.6c-0.1-0.1,0-0.2,0.1-0.3c0.1-0.1,0.2-0.1,0.3,0c0.1,0.1,8,7.3,22.9,7.3
			c1.9,0,3.8-0.1,5.8-0.3C48.3,45.1,61.7,30.2,61.8,30c0.1-0.1,0.2-0.1,0.3-0.1s0.1,0.1,0.2,0.2l0.1,2.2c0,0.1,0,0.1-0.1,0.1
			C62.2,32.6,48,48.5,29,49.8C27.8,49.9,26.7,50,25.6,50"/>
		<path class="st1" d="M58.4,25.3c-0.1,0-0.3-0.1-0.3-0.2C58,25,51.9,17,37.3,14c-9.5-1.7-19.2-0.5-28,3.3c-0.2,0.1-0.4,0-0.5-0.2
			s0-0.5,0.2-0.6c8.9-3.9,18.9-5.1,28.5-3.3c14.9,3,21,11,21.3,11.4c0.1,0.2,0.1,0.4-0.1,0.6l0,0C58.6,25.3,58.5,25.3,58.4,25.3"/>
		<path class="st1" d="M62.2,37.7c-0.3,0-1.5-0.9-2.3-1.3l-0.5-0.3c-8.6-4.7-16-8.8-24.6-10.5c-2.8-0.6-5.6-0.9-8.4-0.9
			c-13.7,0-21.6,7.5-21.7,7.6c-0.1,0.1-0.2,0.1-0.3,0c-0.1-0.1-0.1-0.2,0-0.3c5.9-6.1,13.9-9.5,22.4-9.5c2.7,0,5.4,0.4,8.1,1
			c8.7,2.1,16.1,6.8,24.7,12.2l0.5,0.4c0.7,0.4,2,1.1,2.1,1.2C62.3,37.3,62.4,37.7,62.2,37.7z"/>
		<path class="st0" d="M24.4,44.6l-0.1-0.3c-0.2-1.5-0.3-3-0.3-4.4c0-0.7,0-1.5,0.1-2.2c0-0.5,0-1,0-1.4l-0.7-0.4
			c-2-0.9-3.9-1.9-5.8-3l-0.4-0.3l0.4-0.2c1-0.5,5.7-1.6,6.6-1.8c0.1-0.4,0.3-1.3,0.6-2.4s0.6-2,0.8-2.5c0.1-0.2,0.1-0.4,0.2-0.5
			l0.1-0.3l0.3,0.2c1.8,1.3,3.5,2.7,5.1,4.3c0.8-0.1,3.4-0.2,5.1-0.2c0.5,0,1,0,1.4,0.1l0.3,0.1l-0.1,0c-0.5,1-1.1,2-1.8,2.9
			c-0.5,0.7-1,1.3-1.5,1.9c1.4,1.9,3.8,5,4.2,6.1l0.1,0.3h-0.3c-1.2-0.1-2.4-0.2-3.6-0.5c-0.7-0.1-2-0.5-3-0.8
			c-0.6-0.2-1.2-0.4-1.5-0.4c-0.2,0.2-0.9,0.9-1.7,1.6c-1.3,1.4-2.8,2.7-4.2,4L24.4,44.6z"/>
	</g>
</g>
</svg>
