<?xml version="1.0" encoding="utf-8"?>
<!-- Generator: Adobe Illustrator 24.3.0, SVG Export Plug-In . SVG Version: 6.00 Build 0)  -->
<svg version="1.1"
	 id="svg833" inkscape:version="1.0beta1 (76ce730, 2019-10-19)" sodipodi:docname="Logo DGFP-fr.svg" xmlns:cc="http://creativecommons.org/ns#" xmlns:dc="http://purl.org/dc/elements/1.1/" xmlns:inkscape="http://www.inkscape.org/namespaces/inkscape" xmlns:rdf="http://www.w3.org/1999/02/22-rdf-syntax-ns#" xmlns:sodipodi="http://sodipodi.sourceforge.net/DTD/sodipodi-0.dtd" xmlns:svg="http://www.w3.org/2000/svg"
	 xmlns="http://www.w3.org/2000/svg" xmlns:xlink="http://www.w3.org/1999/xlink" x="0px" y="0px" viewBox="0 0 212.6 212.6"
	 style="enable-background:new 0 0 212.6 212.6;" xml:space="preserve">
<style type="text/css">
	.st0{fill:#D59B21;}
	.st1{fill:#876133;}
	.st2{fill:url(#path1167_1_);}
	.st3{fill:#A77A2F;}
	.st4{fill:#004C6C;}
	.st5{fill:#001F33;}
	.st6{fill:#004D6D;}
	.st7{fill:url(#path1217_1_);}
</style>
<sodipodi:namedview  bordercolor="#666666" borderopacity="1" gridtolerance="10" guidetolerance="10" id="namedview835" inkscape:current-layer="g841" inkscape:cx="143.67642" inkscape:cy="714.16444" inkscape:document-rotation="0" inkscape:pageopacity="0" inkscape:pageshadow="2" inkscape:window-height="900" inkscape:window-maximized="0" inkscape:window-width="1440" inkscape:window-x="0" inkscape:window-y="0" inkscape:zoom="0.35" objecttolerance="10" pagecolor="#ffffff" showgrid="false">
	</sodipodi:namedview>
<g id="g841" transform="matrix(1.3333333,0,0,-1.3333333,0,1122.52)" inkscape:groupmode="layer" inkscape:label="Logo DGFP-fr">
	<g id="g1447" transform="matrix(4.4506964,0,0,4.4506964,11.666562,535.54162)">
		<path id="path1133" inkscape:connector-curvature="0" class="st0" d="M15.7,50.6h-2.6v-6.7c0-6.6,1.3-8.3,4.2-10.1l0.1,0.1
			c-1.4,1.6-1.7,4.9-1.7,9.4V50.6"/>
		<path id="path1145" inkscape:connector-curvature="0" class="st1" d="M19.2,64.6h-6.2V53.3c1.1,0,2.1,0,2.6,0v9.2h3.2
			c3.2,0,5.4-0.4,6.6-1.7c0.7-0.8,1.2-2.2,1-3.6c0.2,0.5,0.3,1,0.4,1.6c0,0,0,0,0,0C26.6,63.4,24.1,64.6,19.2,64.6"/>
		
			<linearGradient id="path1167_1_" gradientUnits="userSpaceOnUse" x1="-35.795" y1="-29.6487" x2="-34.795" y2="-29.6487" gradientTransform="matrix(-86.2851 7.714541e-06 7.714541e-06 86.1816 -3061.0706 2614.1357)">
			<stop  offset="0" style="stop-color:#876133"/>
			<stop  offset="0.2857" style="stop-color:#D59B21"/>
			<stop  offset="1" style="stop-color:#D59B21"/>
		</linearGradient>
		<path id="path1167" inkscape:connector-curvature="0" class="st2" d="M13.1,64.6V53.3h2.6v9.2h3.2c3.2,0,5.4-0.4,6.6-1.7l0,0
			c0.7-0.8,1.2-2.2,1-3.6l0,0c0.2,0.5,0.3,1,0.4,1.6l0,0c0,0,0,0,0,0l0,0c0,0,0,0,0,0l0,0c-0.3,4.6-2.8,5.8-7.6,5.8l0,0H13.1z"/>
		<path id="path1177" inkscape:connector-curvature="0" class="st3" d="M15.7,49.3h-2.6v1.3h2.6V49.3z"/>
		<path id="path1181" inkscape:connector-curvature="0" class="st4" d="M27.7,62.7l-0.7,5.1H5.3V67c1-0.3,2.2-0.6,2.6-0.8
			C9,65.8,9.2,65,9.2,61.8V42.3c0-3.2-0.3-4-1.4-4.5c-0.6-0.3-1.8-0.6-2.5-0.7v-0.8h6.5v29.4h7.4c3.1,0,6.3-0.4,7.6-3L27.7,62.7"/>
		<path id="path1183" inkscape:connector-curvature="0" class="st5" d="M11.8,49.3H9.2v1.3h2.6V49.3z"/>
		<path id="path1195" inkscape:connector-curvature="0" class="st6" d="M25.3,53.6c-1.2-1.5-3.5-3-9.4-3H9c-4.8,0-7-1.6-7.8-5H1.1
			c0,3.9,2.9,7.7,8,7.7c1.4,0,6,0,6.7,0c5.3,0,8.5,0.6,10.2,3c0.4,0.6,0.8,1.6,0.9,2.5C27,56.9,26.5,55.1,25.3,53.6"/>
		
			<linearGradient id="path1217_1_" gradientUnits="userSpaceOnUse" x1="-35.8011" y1="-28.6864" x2="-34.8002" y2="-28.6864" gradientTransform="matrix(153 0 0 -97.3081 5478.6582 -2739.199)">
			<stop  offset="0" style="stop-color:#004D6D"/>
			<stop  offset="0.2762" style="stop-color:#004D6D"/>
			<stop  offset="1" style="stop-color:#6192A7"/>
		</linearGradient>
		<path id="path1217" inkscape:connector-curvature="0" class="st7" d="M26,56.3c-1.7-2.4-4.9-3-10.2-3l0,0c-0.7,0-5.2,0-6.7,0l0,0
			c-5.2,0-8.1-3.8-8-7.7l0,0h0.1c0.8,3.3,3.1,5,7.8,5l0,0h6.9c5.9,0,8.2,1.5,9.4,3l0,0c1.2,1.5,1.7,3.3,1.6,5.2l0,0
			C26.8,57.9,26.5,56.9,26,56.3"/>
	</g>
</g>
</svg>
