<?xml version="1.0" encoding="utf-8"?>
<!-- Generator: Adobe Illustrator 24.3.0, SVG Export Plug-In . SVG Version: 6.00 Build 0)  -->
<svg version="1.1" id="Calque_1" xmlns="http://www.w3.org/2000/svg" xmlns:xlink="http://www.w3.org/1999/xlink" x="0px" y="0px"
	 viewBox="0 0 90.7 90.7" style="enable-background:new 0 0 90.7 90.7;" xml:space="preserve">
<style type="text/css">
	.st0{fill:#242E40;}
	.st1{fill:#08C79E;}
</style>
<g>
	<g>
		<path class="st0" d="M75.9,57.4l-9.3-23.9l1-12.2h6.3c1.6,0,3.1,1,3.7,2.5l7,18.4l5.2,13.9c0.5,1.9-0.8,3.8-2.8,3.8h-7.5
			C77.9,59.9,76.5,58.9,75.9,57.4z"/>
	</g>
</g>
<path class="st1" d="M64.7,20.9h6.7c5.3,0,5.7,2.2,5.7,2.2s-3.1-3-5.7,4.8l-8.3,23.2c-0.9,2.5-2.2,4.9-4.5,6.2
	c-4.1,2.4-9,2.5-14.9,1.6c-3-0.8-4.2-2.7-4.2-2.7c6.1,0,11.1-13.1,11.7-15.3c0.4-1.4,3.2-9,5.3-14.4C57.8,23.1,61.1,20.9,64.7,20.9z
	"/>
<g>
	<g>
		<path class="st0" d="M39.5,13.4C37.9,13,36,13,35.4,13c-5.7,0-9.9,5.2-8.8,10.7c2.5,11.6,5.3,21.4,12.6,32c1.2,1.8,3.2,3,5.3,3.3
			c9.4,1.2,15-1,16.7-4.5c-7.9,4.9-16.2-27.1-18.6-37C42.2,15.7,41.4,13.8,39.5,13.4z"/>
	</g>
</g>
<path class="st1" d="M19.6,74.9H5.1c-2.5,0-4.2-2.5-3.3-4.8c6.1-16.6,11.5-37.5,14.6-50.6c0.9-4,4.5-6.9,8.6-6.9h6
	c7.9,0,8.8,0.2,10.5,2.2c-1.2-1.4-4-0.9-5.3,5.7c-6.1,32-11.1,46.4-13.6,52.4C22.2,74.1,21,74.9,19.6,74.9z"/>
</svg>
