<svg xmlns="http://www.w3.org/2000/svg" width="200" height="200" viewBox="0 0 46 46" fill="none">
<path fill="#003D7C" d="M8.3,0C8.3,0,0,0,0,8.3v29.4c0,0,0,8.3,8.3,8.3h29.4c0,0,8.3,0,8.3-8.3V8.3c0,0,0-8.3-8.3-8.3H8.3 z"/>
<path fill="#FFFFFF" d="M24.1,17.3c0.1-0.9,0.4-1.7,0.9-2.2s1.1-0.8,1.9-0.8s1.5,0.3,1.9,0.8c0.5,0.5,0.7,1.2,0.8,2.2 c0,0.2-0.2,0.3-0.3,0.3h-4.9C24.3,17.7,24.1,17.5,24.1,17.3 M31.8,21.3c0.1-0.7-0.3-0.8-0.5-0.8h-0.1c-0.2,0-0.5,0.1-0.6,0.2 c-0.2,0.1-0.6,0.6-0.8,0.8S29.3,21.8,29,22s-0.6,0.3-0.9,0.4s-0.6,0.1-1,0.1c-0.5,0-1.1-0.1-1.5-0.4c-0.5-0.3-0.8-0.7-1.1-1.2 c-0.2-0.5-0.4-1-0.4-1.7c0-0.2,0.2-0.3,0.3-0.3h5.5c0.7,0,1.3-0.1,1.7-0.3c0.3-0.2,0.5-0.6,0.5-1.3c0-0.8-0.2-1.5-0.6-2.2 s-1-1.3-1.7-1.8C29,13,28.1,12.7,27,12.7c-0.8,0-1.6,0.1-2.3,0.4c-0.7,0.3-1.3,0.7-1.7,1.2c-0.5,0.5-0.8,1.1-1.1,1.8 c-0.2,0.7-0.4,1.5-0.4,2.3c0,1.8,0.5,3.2,1.5,4.2s2.4,1.5,4.2,1.5c0.8,0,1.5-0.1,2.1-0.3C30.3,23.4,31.6,22.4,31.8,21.3"/>
<path fill="#FFFFFF" d="M22.5,9.8L22.5,9.8c-4.8,0-8.6,3.9-8.6,8.6l0,0c0,4.8,3.9,8.6,8.6,8.6s8.6-3.9,8.6-8.6 S27.2,9.8,22.5,9.8z"/>
<path fill="#003D7C" d="M24.1,17.3c0.1-0.9,0.4-1.7,0.9-2.2s1.1-0.8,1.9-0.8s1.5,0.3,1.9,0.8c0.5,0.5,0.7,1.2,0.8,2.2 c0,0.2-0.2,0.3-0.3,0.3h-4.9C24.3,17.7,24.1,17.5,24.1,17.3 M30.9,20.5c-0.1,0-0.2,0.1-0.3,0.2c-0.2,0.1-0.6,0.6-0.8,0.8 S29.3,21.8,29,22s-0.6,0.3-0.9,0.4s-0.6,0.1-1,0.1c-0.5,0-1-0.1-1.5-0.4s-0.8-0.7-1.1-1.2c-0.2-0.5-0.4-1-0.4-1.6 c0-0.2,0.2-0.3,0.3-0.3h5.5c0.5,0,0.9,0,1-0.1c0,0,0.2,0,0.2-0.1s0-0.2,0-0.4c0-2-0.7-3.8-1.2-4.5c0,0-0.6-0.7-0.9-0.9 s-1.1-0.3-2-0.3c-0.8,0-1.6,0.1-2.3,0.4c-0.7,0.3-1.3,0.7-1.7,1.2c-0.5,0.5-0.8,1.1-1.1,1.8c-0.2,0.7-0.4,1.5-0.4,1.9 c0,0,0,0.4,0,1.3s0.5,2.3,1.5,3.3s2.4,1.5,4.2,1.5c0.7,0,1.4-0.1,1.7-0.2c0,0,0.3-0.1,0.7-0.6C30,22.9,30.5,21.8,30.9,20.5"/>
<path fill="#FFFFFF" d="M8.9,33c0-0.4-0.1-0.6-0.2-0.8S8.3,31.8,8,31.8S7.4,32,7.3,32.2S7.1,32.6,7.1,33v1.1H8 c0.3,0,0.6-0.1,0.7-0.3C8.8,33.6,8.9,33.3,8.9,33 M9.5,33c0,1.2-0.5,1.8-1.5,1.8H7.1v1.4H6.5V33c0-1.2,0.5-1.8,1.5-1.8 C9,31.1,9.5,31.7,9.5,33"/>
<path fill="#FFFFFF" d="M12.3,33c0-0.4-0.1-0.6-0.2-0.8c-0.1-0.2-0.4-0.3-0.7-0.3s-0.6,0.1-0.7,0.3 c-0.1,0.2-0.2,0.4-0.2,0.8s0.1,0.6,0.2,0.8c0.1,0.2,0.4,0.3,0.7,0.3s0.6-0.1,0.7-0.3C12.3,33.6,12.3,33.3,12.3,33 M12.7,30.4 l-0.3,0.4l-1-0.6l-1,0.6l-0.3-0.4l1.3-0.7L12.7,30.4z M13,33c0,1.2-0.5,1.8-1.5,1.8S9.9,34.2,9.9,33s0.5-1.8,1.5-1.8 C12.5,31.1,13,31.7,13,33"/>
<path fill="#FFFFFF" d="M15.1,34.8c-1.1,0-1.6-0.4-1.6-1.3v-3.8h0.6v3.8c0,0.2,0.1,0.3,0.2,0.4 c0.2,0.1,0.4,0.2,0.8,0.2V34.8L15.1,34.8z"/>
<path fill="#FFFFFF" d="M29.6,34.8H29V33c0-0.4-0.1-0.6-0.2-0.8s-0.4-0.3-0.7-0.3c-0.3,0-0.6,0.1-0.7,0.3 s-0.2,0.4-0.2,0.8v1.8h-0.6V33c0-0.4-0.1-0.6-0.2-0.8s-0.4-0.3-0.7-0.3c-0.3,0-0.6,0.1-0.7,0.3s-0.2,0.4-0.2,0.8v1.8h-0.6V33 c0-1.2,0.5-1.8,1.5-1.8c0.5,0,0.9,0.2,1.2,0.6c0.3-0.4,0.6-0.6,1.2-0.6c1,0,1.5,0.6,1.5,1.8C29.6,33,29.6,34.8,29.6,34.8z"/>
<path fill="#FFFFFF" d="M32.5,33c0-0.4-0.1-0.6-0.2-0.8c-0.1-0.2-0.4-0.3-0.7-0.3c-0.3,0-0.6,0.1-0.7,0.3 s-0.2,0.4-0.2,0.8v1.1h0.9c0.3,0,0.6-0.1,0.7-0.3C32.4,33.6,32.5,33.3,32.5,33 M33.1,33c0,1.2-0.5,1.8-1.5,1.8h-0.9v1.4h-0.6V33 c0-1.2,0.5-1.8,1.5-1.8C32.6,31.1,33.1,31.7,33.1,33"/>
<path fill="#FFFFFF" d="M35.2,34.8c-1.1,0-1.6-0.4-1.6-1.3v-3.8h0.6v3.8c0,0.2,0.1,0.3,0.2,0.4 c0.2,0.1,0.4,0.2,0.8,0.2V34.8L35.2,34.8z"/>
<path fill="#FFFFFF" d="M37.8,33c0-0.4-0.1-0.6-0.2-0.8c-0.1-0.2-0.4-0.3-0.7-0.3s-0.6,0.1-0.7,0.3 C36.1,32.3,36,32.6,36,33s0.1,0.6,0.2,0.8c0.1,0.2,0.4,0.3,0.7,0.3s0.6-0.1,0.7-0.3C37.7,33.6,37.8,33.3,37.8,33 M38.4,33 c0,1.2-0.5,1.8-1.5,1.8s-1.5-0.6-1.5-1.8s0.5-1.8,1.5-1.8C37.9,31.1,38.4,31.7,38.4,33"/>
<path fill="#FFFFFF" d="M38.9,34.8h1v-3.6h-1V34.8z M38.9,30.4h1v-0.7h-1V30.4z"/>
<path fill="#FFFFFF" d="M17.6,32.2c-0.1-0.3-0.4-0.5-0.7-0.5c-0.3,0-0.6,0.2-0.7,0.5c-0.1,0.2-0.1,0.3-0.1,0.5h1.6 C17.7,32.5,17.6,32.4,17.6,32.2 M16.1,33.2c0,0.6,0.3,1,0.9,1c0.4,0,0.6-0.1,0.9-0.4l0.5,0.4c-0.4,0.4-0.7,0.6-1.3,0.6 c-0.9,0-1.6-0.5-1.6-1.8c0-1.2,0.6-1.8,1.5-1.8c1,0,1.5,0.7,1.5,1.7v0.3H16.1z"/>
<path fill="#FFFFFF" d="M22.8,32.2c-0.1-0.3-0.4-0.5-0.7-0.5c-0.3,0-0.6,0.2-0.7,0.5c-0.1,0.2-0.1,0.3-0.1,0.5h1.6 C22.9,32.5,22.9,32.4,22.8,32.2 M21.3,33.2c0,0.6,0.3,1,0.9,1c0.4,0,0.6-0.1,0.9-0.4l0.5,0.4c-0.4,0.4-0.7,0.6-1.3,0.6 c-0.9,0-1.6-0.5-1.6-1.8c0-1.2,0.6-1.8,1.5-1.8c1,0,1.5,0.7,1.5,1.7v0.3H21.3z"/>
<path fill="#FFFFFF" d="M17.6,32.2c-0.1-0.3-0.4-0.5-0.7-0.5c-0.3,0-0.6,0.2-0.7,0.5c-0.1,0.2-0.1,0.3-0.1,0.5h1.6 C17.7,32.5,17.6,32.4,17.6,32.2 M16.1,33.2c0,0.6,0.3,1,0.9,1c0.4,0,0.6-0.1,0.9-0.4l0.5,0.4c-0.4,0.4-0.7,0.6-1.3,0.6 c-0.9,0-1.6-0.5-1.6-1.8c0-1.2,0.6-1.8,1.5-1.8c1,0,1.5,0.7,1.5,1.7v0.3H16.1z"/>
<path fill="#FFFFFF" d="M22.8,32.2c-0.1-0.3-0.4-0.5-0.7-0.5c-0.3,0-0.6,0.2-0.7,0.5c-0.1,0.2-0.1,0.3-0.1,0.5h1.6 C22.9,32.5,22.9,32.4,22.8,32.2 M21.3,33.2c0,0.6,0.3,1,0.9,1c0.4,0,0.6-0.1,0.9-0.4l0.5,0.4c-0.4,0.4-0.7,0.6-1.3,0.6 c-0.9,0-1.6-0.5-1.6-1.8c0-1.2,0.6-1.8,1.5-1.8c1,0,1.5,0.7,1.5,1.7v0.3H21.3z"/>
</svg>