<?xml version="1.0" encoding="utf-8"?>
<!-- Generator: Adobe Illustrator 24.3.0, SVG Export Plug-In . SVG Version: 6.00 Build 0)  -->
<svg version="1.1" id="Calque_1" xmlns="http://www.w3.org/2000/svg" xmlns:xlink="http://www.w3.org/1999/xlink" x="0px" y="0px"
	 viewBox="0 0 127.6 127.6" style="enable-background:new 0 0 127.6 127.6;" xml:space="preserve">
<style type="text/css">
	.st0{fill:#E72565;}
</style>
<g id="Calque_2_1_">
	<g id="NAV">
		<path class="st0" d="M56.4,70.1h11.5c-0.1-1.4-0.8-2.8-1.8-3.8c-1-0.9-2.4-1.4-3.8-1.4c-1.4,0-2.8,0.5-3.9,1.5
			C57.3,67.4,56.6,68.7,56.4,70.1 M71.9,73.1H56.2c0,1.7,0.6,3.4,1.7,4.7c1.1,1.4,2.8,2.2,4.5,2.1c2.5,0,4.5-1.3,6.1-4l3.3,1.9
			c-1.9,3.5-5.6,5.6-9.6,5.6c-2.8,0.1-5.5-1-7.4-3.1s-2.9-4.9-2.8-7.7c-0.1-2.8,0.7-5.7,2.5-7.9c1.9-2.2,4.6-3.3,7.5-3.2
			c2.8-0.2,5.5,1,7.3,3.2c1.7,2.2,2.5,5,2.4,7.8L71.9,73.1z"/>
		<path class="st0" d="M57.2,59.5l5.6-5.7c0.7-0.7,1.5-1.4,2.3-2c0.5-0.3,1-0.4,1.6-0.4c0.7,0,1.3,0.2,1.8,0.6
			c0.4,0.3,0.6,0.8,0.6,1.3c0,0.4-0.2,0.9-0.5,1.2c-0.8,0.6-1.6,1.2-2.5,1.7c-1.8,1-3.7,2-5.7,2.8C59.4,59.4,58.3,59.5,57.2,59.5"/>
		<path class="st0" d="M0.1,49.1h4.2v20c0,7.1,2.7,10.6,8.2,10.6s8.2-3.5,8.2-10.6v-20h4.2v21.4c0.1,3.4-1,6.8-3.3,9.4
			c-2.3,2.5-5.7,3.9-9.1,3.8c-3.4,0.1-6.8-1.3-9.1-3.8c-2.3-2.6-3.4-6-3.3-9.4C0.1,70.5,0.1,49.1,0.1,49.1z"/>
		<path class="st0" d="M34.3,62v2.8c1.3-2.3,3.8-3.6,6.4-3.4c5,0,7.5,3,7.5,9.1v12.4H44v-12c0.1-1.5-0.1-3-0.7-4.4
			c-0.7-1.1-1.9-1.7-3.8-1.7s-3.8,0.9-4.5,2.8c-0.6,1.8-0.8,3.7-0.7,5.6v9.6h-4.1V62H34.3z"/>
		<path class="st0" d="M84.7,80.1c1.9,0.1,3.8-0.8,5-2.3s1.8-3.4,1.7-5.3c0.1-2-0.6-3.9-1.8-5.4c-1.2-1.5-3.1-2.3-5-2.2
			c-1.9-0.1-3.6,0.8-4.8,2.2c-1.2,1.5-1.8,3.5-1.7,5.4c-0.1,1.9,0.5,3.8,1.7,5.3C81,79.3,82.8,80.2,84.7,80.1 M91.3,83v-3.3
			c-1.5,2.5-4.3,4-7.2,4c-2.9,0.1-5.7-1.1-7.5-3.4c-1.8-2.2-2.7-5-2.6-7.9c-0.1-2.8,0.9-5.5,2.7-7.7c1.8-2.2,4.5-3.4,7.3-3.3
			c3-0.1,5.9,1.5,7.4,4.1V44h4.1v38.9L91.3,83z"/>
		<path class="st0" d="M105.5,82.9h-4.1V62h4.1V82.9z M103.4,49.6c0.8,0,1.5,0.3,2,0.8s0.8,1.3,0.8,2s-0.3,1.4-0.8,1.9
			c-1.1,1.1-2.8,1.1-3.9,0c-0.5-0.5-0.8-1.2-0.8-1.9s0.3-1.5,0.8-2S102.7,49.6,103.4,49.6"/>
		<path class="st0" d="M127.4,62.7v5.2c-1.5-1.8-3.7-2.8-6-2.8c-1.9,0-3.7,0.8-4.9,2.2c-1.3,1.4-2,3.2-2,5.1c-0.1,2,0.6,3.9,2,5.3
			s3.2,2.2,5.2,2.1c2.2,0,4.3-1,5.7-2.7v5.1c-1.8,0.9-3.8,1.4-5.8,1.4c-3,0.1-5.9-1.1-8-3.2c-2.1-2-3.3-4.9-3.3-7.8
			c-0.1-3,1.1-6,3.3-8.1c2.2-2.1,5.1-3.3,8.2-3.2C123.8,61.3,125.7,61.7,127.4,62.7"/>
	</g>
</g>
</svg>
